<svg xmlns="http://www.w3.org/2000/svg" version="1.1" xmlns:xlink="http://www.w3.org/1999/xlink" xmlns:svgjs="http://svgjs.dev/svgjs" width="1000" height="1000" viewBox="0 0 1000 1000"><rect width="1000" height="1000" fill="#ff0000"></rect><g transform="matrix(0.7,0,0,0.7,149.57575757575756,290.7137070600519)"><svg viewBox="0 0 396 237" data-background-color="#ff0000" preserveAspectRatio="xMidYMid meet" height="598" width="1000" xmlns="http://www.w3.org/2000/svg" xmlns:xlink="http://www.w3.org/1999/xlink"><g id="tight-bounds" transform="matrix(1,0,0,1,0.2400000000000091,-0.0077605667278959345)"><svg viewBox="0 0 395.52 237.01552061741282" height="237.01552061741282" width="395.52"><g><svg viewBox="0 0 397.4975999999999 238.20059822049984" height="237.01552061741282" width="395.52"><g><rect width="397.4975999999999" height="4.141379773815455" x="0" y="128.51122133961923" fill="#ffffff" opacity="1" stroke-width="0" stroke="transparent" fill-opacity="1" class="rect-o-0" data-fill-palette-color="primary" rx="1%" id="o-0" data-palette-color="#ffffff"></rect></g><g><rect width="397.4975999999999" height="4.141379773815455" x="0" y="138.0732552676434" fill="#ffffff" opacity="1" stroke-width="0" stroke="transparent" fill-opacity="1" class="rect-o-1" data-fill-palette-color="primary" rx="1%" id="o-1" data-palette-color="#ffffff"></rect></g><g transform="matrix(1,0,0,1,0.9887999999999693,153.05594334987626)"><svg viewBox="0 0 395.52 85.1446548706236" height="85.1446548706236" width="395.52"><g><svg viewBox="0 0 395.52 85.1446548706236" height="85.1446548706236" width="395.52"><g><svg viewBox="0 0 395.52 45.92295832027576" height="45.92295832027576" width="395.52"><g transform="matrix(1,0,0,1,0,0)"><svg width="395.52" viewBox="3.549999952316284 -36.650001525878906 319.07000732421875 37.05000305175781" height="45.92295832027576" data-palette-color="#ffffff"><path d="M5.65 0L5.65 0Q4.9 0 4.23-0.35 3.55-0.7 3.55-1.45L3.55-1.45 3.55-35.05Q3.55-35.8 4.15-36.18 4.75-36.55 5.45-36.55L5.45-36.55 23.1-36.55Q23.85-36.55 24.2-35.95 24.55-35.35 24.55-34.7L24.55-34.7Q24.55-33.95 24.18-33.35 23.8-32.75 23.1-32.75L23.1-32.75 7.75-32.75 7.75-20.05 15.6-20.05Q16.3-20.05 16.68-19.5 17.05-18.95 17.05-18.25L17.05-18.25Q17.05-17.65 16.7-17.1 16.35-16.55 15.6-16.55L15.6-16.55 7.75-16.55 7.75-1.45Q7.75-0.7 7.1-0.35 6.45 0 5.65 0ZM30.6 0L30.6 0Q29.85 0 29.17-0.38 28.5-0.75 28.5-1.5L28.5-1.5 28.5-35.1Q28.5-35.85 29.17-36.2 29.85-36.55 30.6-36.55L30.6-36.55Q31.4-36.55 32.05-36.2 32.7-35.85 32.7-35.1L32.7-35.1 32.7-1.5Q32.7-0.75 32.05-0.38 31.4 0 30.6 0ZM59.25 0.1L59.25 0.1Q58.65 0.1 58.17-0.4 57.7-0.9 57.34-1.55L57.34-1.55 49.84-16.2 44.05-16.2 44.05-1.5Q44.05-0.75 43.4-0.38 42.75 0 41.95 0L41.95 0Q41.2 0 40.52-0.38 39.84-0.75 39.84-1.5L39.84-1.5 39.84-35.1Q39.84-35.7 40.27-36.1 40.7-36.5 41.34-36.55L41.34-36.55 50.5-36.55Q53.55-36.55 56.07-35.63 58.59-34.7 60.09-32.52 61.59-30.35 61.59-26.55L61.59-26.55Q61.59-23.5 60.62-21.5 59.65-19.5 57.95-18.38 56.25-17.25 54.15-16.8L54.15-16.8 61.55-2.75Q61.65-2.55 61.7-2.38 61.75-2.2 61.75-2.05L61.75-2.05Q61.75-1.5 61.37-1 61-0.5 60.42-0.2 59.84 0.1 59.25 0.1ZM44.05-32.75L44.05-19.7 50.5-19.7Q53.59-19.7 55.5-21.2 57.4-22.7 57.4-26.25L57.4-26.25Q57.4-29.8 55.5-31.28 53.59-32.75 50.5-32.75L50.5-32.75 44.05-32.75ZM86.49 0L68.69 0Q67.99 0 67.39-0.38 66.79-0.75 66.79-1.5L66.79-1.5 66.79-35.05Q66.79-35.8 67.39-36.18 67.99-36.55 68.69-36.55L68.69-36.55 86.49-36.55Q87.29-36.55 87.62-35.95 87.94-35.35 87.94-34.7L87.94-34.7Q87.94-33.95 87.57-33.35 87.19-32.75 86.49-32.75L86.49-32.75 70.99-32.75 70.99-20.05 78.79-20.05Q79.49-20.05 79.87-19.5 80.24-18.95 80.24-18.25L80.24-18.25Q80.24-17.65 79.92-17.1 79.59-16.55 78.79-16.55L78.79-16.55 70.99-16.55 70.99-3.8 86.49-3.8Q87.19-3.8 87.57-3.23 87.94-2.65 87.94-1.85L87.94-1.85Q87.94-1.2 87.62-0.6 87.29 0 86.49 0L86.49 0ZM101.19 0.4L101.19 0.4Q97.99 0.4 95.59-0.58 93.19-1.55 91.89-2.88 90.59-4.2 90.59-5.25L90.59-5.25Q90.59-5.75 90.87-6.28 91.14-6.8 91.57-7.18 91.99-7.55 92.44-7.55L92.44-7.55Q93.04-7.55 93.62-6.95 94.19-6.35 95.07-5.53 95.94-4.7 97.34-4.1 98.74-3.5 100.99-3.5L100.99-3.5Q103.09-3.5 104.64-4.17 106.19-4.85 107.07-6.23 107.94-7.6 107.94-9.7L107.94-9.7Q107.94-11.85 107.04-13.2 106.14-14.55 104.67-15.45 103.19-16.35 101.47-17.05 99.74-17.75 97.97-18.48 96.19-19.2 94.74-20.28 93.29-21.35 92.39-23.05 91.49-24.75 91.49-27.35L91.49-27.35Q91.49-30.1 92.49-31.9 93.49-33.7 95.14-34.75 96.79-35.8 98.72-36.23 100.64-36.65 102.49-36.65L102.49-36.65Q103.84-36.65 105.34-36.45 106.84-36.25 108.19-35.85 109.54-35.45 110.39-34.83 111.24-34.2 111.24-33.35L111.24-33.35Q111.24-32.95 111.04-32.43 110.84-31.9 110.44-31.48 110.04-31.05 109.44-31.05L109.44-31.05Q108.89-31.05 108.09-31.53 107.29-32 105.97-32.48 104.64-32.95 102.49-32.95L102.49-32.95Q100.69-32.95 99.12-32.45 97.54-31.95 96.62-30.8 95.69-29.65 95.69-27.75L95.69-27.75Q95.69-25.95 96.59-24.8 97.49-23.65 98.94-22.9 100.39-22.15 102.14-21.53 103.89-20.9 105.64-20.08 107.39-19.25 108.87-18.05 110.34-16.85 111.24-14.93 112.14-13 112.14-10.1L112.14-10.1Q112.14-6.5 110.72-4.17 109.29-1.85 106.84-0.73 104.39 0.4 101.19 0.4ZM126.09 0L126.09 0Q125.29 0 124.64-0.38 123.99-0.75 123.99-1.5L123.99-1.5 123.99-32.65 115.89-32.65Q115.24-32.65 114.84-33.25 114.44-33.85 114.44-34.65L114.44-34.65Q114.44-35.35 114.79-35.95 115.14-36.55 115.89-36.55L115.89-36.55 136.29-36.55Q137.04-36.55 137.39-35.95 137.74-35.35 137.74-34.65L137.74-34.65Q137.74-33.9 137.39-33.27 137.04-32.65 136.29-32.65L136.29-32.65 128.19-32.65 128.19-1.5Q128.19-0.75 127.54-0.38 126.89 0 126.09 0ZM151.39 0.3L151.39 0.3Q148.34 0.3 145.91-0.78 143.49-1.85 142.06-4.23 140.64-6.6 140.64-10.6L140.64-10.6 140.64-25.65Q140.64-29.65 142.06-32.02 143.49-34.4 145.91-35.48 148.34-36.55 151.39-36.55L151.39-36.55Q154.44-36.55 156.89-35.48 159.34-34.4 160.76-32.02 162.19-29.65 162.19-25.65L162.19-25.65 162.19-10.6Q162.19-6.6 160.76-4.23 159.34-1.85 156.89-0.78 154.44 0.3 151.39 0.3ZM151.39-3.5L151.39-3.5Q154.49-3.5 156.24-5.23 157.99-6.95 157.99-10.6L157.99-10.6 157.99-25.65Q157.99-29.3 156.24-31.03 154.49-32.75 151.39-32.75L151.39-32.75Q148.29-32.75 146.56-31.03 144.84-29.3 144.84-25.65L144.84-25.65 144.84-10.6Q144.84-6.95 146.56-5.23 148.29-3.5 151.39-3.5ZM188.33 0.1L188.33 0.1Q187.73 0.1 187.26-0.4 186.78-0.9 186.43-1.55L186.43-1.55 178.93-16.2 173.13-16.2 173.13-1.5Q173.13-0.75 172.48-0.38 171.83 0 171.03 0L171.03 0Q170.28 0 169.61-0.38 168.93-0.75 168.93-1.5L168.93-1.5 168.93-35.1Q168.93-35.7 169.36-36.1 169.78-36.5 170.43-36.55L170.43-36.55 179.58-36.55Q182.63-36.55 185.16-35.63 187.68-34.7 189.18-32.52 190.68-30.35 190.68-26.55L190.68-26.55Q190.68-23.5 189.71-21.5 188.73-19.5 187.03-18.38 185.33-17.25 183.23-16.8L183.23-16.8 190.63-2.75Q190.73-2.55 190.78-2.38 190.83-2.2 190.83-2.05L190.83-2.05Q190.83-1.5 190.46-1 190.08-0.5 189.51-0.2 188.93 0.1 188.33 0.1ZM173.13-32.75L173.13-19.7 179.58-19.7Q182.68-19.7 184.58-21.2 186.48-22.7 186.48-26.25L186.48-26.25Q186.48-29.8 184.58-31.28 182.68-32.75 179.58-32.75L179.58-32.75 173.13-32.75ZM215.58 0L197.78 0Q197.08 0 196.48-0.38 195.88-0.75 195.88-1.5L195.88-1.5 195.88-35.05Q195.88-35.8 196.48-36.18 197.08-36.55 197.78-36.55L197.78-36.55 215.58-36.55Q216.38-36.55 216.71-35.95 217.03-35.35 217.03-34.7L217.03-34.7Q217.03-33.95 216.66-33.35 216.28-32.75 215.58-32.75L215.58-32.75 200.08-32.75 200.08-20.05 207.88-20.05Q208.58-20.05 208.96-19.5 209.33-18.95 209.33-18.25L209.33-18.25Q209.33-17.65 209.01-17.1 208.68-16.55 207.88-16.55L207.88-16.55 200.08-16.55 200.08-3.8 215.58-3.8Q216.28-3.8 216.66-3.23 217.03-2.65 217.03-1.85L217.03-1.85Q217.03-1.2 216.71-0.6 216.38 0 215.58 0L215.58 0ZM230.28 0L230.28 0Q229.48 0 228.83-0.38 228.18-0.75 228.18-1.5L228.18-1.5 228.18-32.65 220.08-32.65Q219.43-32.65 219.03-33.25 218.63-33.85 218.63-34.65L218.63-34.65Q218.63-35.35 218.98-35.95 219.33-36.55 220.08-36.55L220.08-36.55 240.48-36.55Q241.23-36.55 241.58-35.95 241.93-35.35 241.93-34.65L241.93-34.65Q241.93-33.9 241.58-33.27 241.23-32.65 240.48-32.65L240.48-32.65 232.38-32.65 232.38-1.5Q232.38-0.75 231.73-0.38 231.08 0 230.28 0ZM255.58 0.3L255.58 0.3Q252.53 0.3 250.1-0.78 247.68-1.85 246.25-4.23 244.83-6.6 244.83-10.6L244.83-10.6 244.83-25.65Q244.83-29.65 246.25-32.02 247.68-34.4 250.1-35.48 252.53-36.55 255.58-36.55L255.58-36.55Q258.63-36.55 261.08-35.48 263.53-34.4 264.95-32.02 266.38-29.65 266.38-25.65L266.38-25.65 266.38-10.6Q266.38-6.6 264.95-4.23 263.53-1.85 261.08-0.78 258.63 0.3 255.58 0.3ZM255.58-3.5L255.58-3.5Q258.68-3.5 260.43-5.23 262.18-6.95 262.18-10.6L262.18-10.6 262.18-25.65Q262.18-29.3 260.43-31.03 258.68-32.75 255.58-32.75L255.58-32.75Q252.48-32.75 250.75-31.03 249.03-29.3 249.03-25.65L249.03-25.65 249.03-10.6Q249.03-6.95 250.75-5.23 252.48-3.5 255.58-3.5ZM283.87 0L275.02 0Q274.17 0 273.65-0.43 273.12-0.85 273.12-1.45L273.12-1.45 273.12-35.1Q273.12-35.7 273.65-36.13 274.17-36.55 275.02-36.55L275.02-36.55 283.87-36.55Q286.92-36.55 289.37-35.48 291.82-34.4 293.25-32.02 294.67-29.65 294.67-25.65L294.67-25.65 294.67-10.9Q294.67-6.9 293.25-4.53 291.82-2.15 289.37-1.07 286.92 0 283.87 0L283.87 0ZM277.32-32.75L277.32-3.8 283.87-3.8Q286.97-3.8 288.72-5.53 290.47-7.25 290.47-10.9L290.47-10.9 290.47-25.65Q290.47-29.3 288.72-31.03 286.97-32.75 283.87-32.75L283.87-32.75 277.32-32.75ZM311.82 0.3L311.82 0.3Q308.77 0.3 306.35-0.78 303.92-1.85 302.5-4.23 301.07-6.6 301.07-10.6L301.07-10.6 301.07-25.65Q301.07-29.65 302.5-32.02 303.92-34.4 306.35-35.48 308.77-36.55 311.82-36.55L311.82-36.55Q314.87-36.55 317.32-35.48 319.77-34.4 321.2-32.02 322.62-29.65 322.62-25.65L322.62-25.65 322.62-10.6Q322.62-6.6 321.2-4.23 319.77-1.85 317.32-0.78 314.87 0.3 311.82 0.3ZM311.82-3.5L311.82-3.5Q314.92-3.5 316.67-5.23 318.42-6.95 318.42-10.6L318.42-10.6 318.42-25.65Q318.42-29.3 316.67-31.03 314.92-32.75 311.82-32.75L311.82-32.75Q308.72-32.75 307-31.03 305.27-29.3 305.27-25.65L305.27-25.65 305.27-10.6Q305.27-6.95 307-5.23 308.72-3.5 311.82-3.5Z" opacity="1" transform="matrix(1,0,0,1,0,0)" fill="#ffffff" class="undefined-text-0" data-fill-palette-color="primary" id="text-0"></path></svg></g></svg></g><g transform="matrix(1,0,0,1,0,56.76426662869318)"><svg viewBox="0 0 395.52 28.380388241930415" height="28.380388241930415" width="395.52"><g transform="matrix(1,0,0,1,0,0)"><svg width="395.52" viewBox="7.079999923706055 -36.88999938964844 698.1799926757812 50.099998474121094" height="28.380388241930415" data-palette-color="#ffffff"><path d="M17.97-31.03L11.23-31.03 11.23-3.66 16.28-3.66Q17.38-3.66 18.1-3.69 18.82-3.71 20.06-3.83 21.29-3.96 22.18-4.2 23.07-4.44 24.21-4.91 25.34-5.37 26.22-6.03 27.1-6.69 27.98-7.71 28.86-8.74 29.52-10.03L29.52-10.03Q31.13-13.13 31.13-17.58L31.13-17.58Q31.13-20.65 30.24-23.13 29.35-25.61 27.87-27.16 26.39-28.71 24.72-29.61 23.05-30.52 21.22-30.83L21.22-30.83Q20.14-31.03 17.97-31.03L17.97-31.03ZM7.08-34.69L17.82-34.69Q21.19-34.69 23.95-34.02 26.71-33.35 28.58-32.13 30.44-30.91 31.79-29.37 33.13-27.83 33.87-25.94 34.62-24.05 34.96-22.22 35.3-20.39 35.3-18.41L35.3-18.41Q35.3-16.14 34.96-14.04 34.62-11.94 33.78-9.77 32.93-7.59 31.63-5.87 30.32-4.15 28.25-2.77 26.17-1.39 23.54-0.73L23.54-0.73Q22.17-0.39 20.48-0.22 18.8-0.05 17.7-0.02 16.6 0 14.6 0L14.6 0 7.08 0 7.08-34.69ZM82.64-24.58L82.64-24.58Q87.65-24.58 90.88-21.39 94.12-18.19 94.12-12.55L94.12-12.55Q94.12-6.57 90.81-3.04 87.5 0.49 82.25 0.49L82.25 0.49Q77.25 0.49 74.08-2.82 70.9-6.13 70.9-11.79L70.9-11.79Q70.9-17.63 74.14-21.11 77.37-24.58 82.64-24.58ZM82.3-21.17L82.3-21.17Q79.3-21.17 77.05-18.85 74.81-16.53 74.81-12.48L74.81-12.48Q74.81-8.45 77-5.69 79.2-2.93 82.69-2.93L82.69-2.93Q85.92-2.93 88.06-5.37 90.21-7.81 90.21-11.74L90.21-11.74Q90.21-13.99 89.52-15.82 88.82-17.65 87.69-18.8 86.55-19.95 85.16-20.56 83.77-21.17 82.3-21.17ZM182.77-24.58L182.77-24.58Q184.53-24.58 185.93-24.16 187.34-23.73 188.27-23.07 189.19-22.41 189.86-21.35 190.54-20.29 190.89-19.3 191.24-18.31 191.44-16.92 191.63-15.53 191.68-14.5 191.73-13.48 191.73-12.08L191.73-12.08 191.73-10.18 175.15-10.18Q175.15-8.86 175.75-7.56 176.35-6.25 177.44-5.16 178.52-4.08 180.29-3.39 182.06-2.71 184.21-2.71L184.21-2.71Q186.75-2.71 189.71-3.59L189.71-3.59 190.41-0.85Q186.48 0.49 182.7 0.49L182.7 0.49Q180.04 0.49 177.97-0.22 175.91-0.93 174.65-2.06 173.4-3.2 172.59-4.79 171.79-6.37 171.48-7.95 171.18-9.52 171.18-11.28L171.18-11.28Q171.18-13.99 171.83-16.24 172.49-18.48 173.62-20.01 174.74-21.53 176.24-22.58 177.74-23.63 179.39-24.11 181.04-24.58 182.77-24.58ZM181.92-21.12L181.92-21.12Q179.77-21.12 178.22-19.93 176.67-18.75 175.96-16.99 175.25-15.23 175.25-13.21L175.25-13.21 187.85-13.21Q187.85-21.12 181.92-21.12ZM241.93-24.12L246.08-24.12 237.61 0 233.46 0 225.01-24.12 229.41-24.12 235.66-3.98 241.93-24.12ZM290.96-24.58L290.96-24.58Q292.71-24.58 294.12-24.16 295.52-23.73 296.45-23.07 297.38-22.41 298.05-21.35 298.72-20.29 299.07-19.3 299.43-18.31 299.62-16.92 299.82-15.53 299.87-14.5 299.92-13.48 299.92-12.08L299.92-12.08 299.92-10.18 283.34-10.18Q283.34-8.86 283.94-7.56 284.54-6.25 285.62-5.16 286.71-4.08 288.48-3.39 290.25-2.71 292.4-2.71L292.4-2.71Q294.94-2.71 297.89-3.59L297.89-3.59 298.6-0.85Q294.67 0.49 290.88 0.49L290.88 0.49Q288.22 0.49 286.16-0.22 284.1-0.93 282.84-2.06 281.58-3.2 280.78-4.79 279.97-6.37 279.66-7.95 279.36-9.52 279.36-11.28L279.36-11.28Q279.36-13.99 280.02-16.24 280.68-18.48 281.8-20.01 282.92-21.53 284.43-22.58 285.93-23.63 287.57-24.11 289.22-24.58 290.96-24.58ZM290.1-21.12L290.1-21.12Q287.95-21.12 286.4-19.93 284.85-18.75 284.14-16.99 283.44-15.23 283.44-13.21L283.44-13.21 296.03-13.21Q296.03-21.12 290.1-21.12ZM338.81-24.12L339.57-22.31Q342.62-24.58 346.31-24.58L346.31-24.58Q348.84-24.58 350.92-23.63L350.92-23.63 349.7-20.43Q347.79-21.17 345.74-21.17L345.74-21.17Q342.69-21.17 340.01-19.48L340.01-19.48 340.01 0 336 0 336-24.12 338.81-24.12ZM390.99 1.2L380.9-24.12 385.3-24.12 393.01-3.66 400.19-24.12 404.34-24.12 390.42 12.96 386.15 12.96 390.99 1.2ZM450.73-3.15L451.29-0.42Q447.75 0.49 445.77 0.49 443.8 0.49 442.43-0.15 441.06-0.78 440.35-1.95 439.65-3.13 439.34-4.48 439.04-5.83 439.04-7.59L439.04-7.59 439.04-20.97 435.79-20.97 435.79-24.12 439.04-24.12 439.04-31.03 443.04-31.03 443.04-24.12 450.39-24.12 450.39-20.97 443.04-20.97 443.04-7.64Q443.04-2.64 446.99-2.64L446.99-2.64Q447.7-2.64 450.73-3.15L450.73-3.15ZM496.61-21L496.61-21Q493.75-21 490.16-19.12L490.16-19.12 490.16 0 486.16 0 486.16-36.89 490.16-36.89 490.16-22.29Q494.43-24.56 498.17-24.56L498.17-24.56Q499.78-24.56 501.06-24.15 502.34-23.73 503.17-23.11 504-22.49 504.6-21.5 505.2-20.51 505.51-19.64 505.81-18.77 505.97-17.58 506.13-16.38 506.16-15.63 506.2-14.87 506.2-13.84L506.2-13.84 506.2 0 502.1 0 502.1-14.58Q502.1-21 496.61-21ZM543.14-30.08L543.14-34.69 547.88-34.69 547.88-30.08 543.14-30.08ZM543.51 0L543.51-24.12 547.51-24.12 547.51 0 543.51 0ZM584.82 0L584.82-24.12 587.63-24.12 588.51-22.07Q593.17-24.61 597-24.61L597-24.61Q598.98-24.61 600.45-23.99 601.91-23.36 602.72-22.42 603.52-21.48 604-20.06 604.47-18.63 604.61-17.33 604.74-16.04 604.74-14.38L604.74-14.38 604.74 0 600.74 0 600.74-14.65Q600.74-21 595.27-21L595.27-21Q592.44-21 588.82-19.12L588.82-19.12 588.82 0 584.82 0ZM651.99-24.61L651.99-24.61Q654.87-24.61 658.65-22.68L658.65-22.68 659.16-24.12 661.97-24.12 661.97 1.51Q661.97 2.25 661.92 2.93 661.87 3.61 661.63 4.86 661.39 6.1 660.95 7.13 660.51 8.15 659.62 9.34 658.72 10.52 657.52 11.33 656.31 12.13 654.39 12.67 652.47 13.21 650.11 13.21L650.11 13.21Q646.37 13.21 642.64 11.65L642.64 11.65 643.76 8.74Q646.76 9.86 649.59 9.86L649.59 9.86Q657.97 9.86 657.97 0.61L657.97 0.61 657.97-1.17Q654.82 0.49 651.6 0.49L651.6 0.49Q650.03 0.49 648.54 0.09 647.05-0.32 645.63-1.26 644.2-2.2 643.14-3.6 642.07-5 641.43-7.17 640.78-9.33 640.78-11.99L640.78-11.99Q640.78-14.79 641.56-17.05 642.34-19.31 643.54-20.68 644.74-22.05 646.29-22.97 647.84-23.9 649.25-24.26 650.67-24.61 651.99-24.61ZM652.23-21.36L652.23-21.36Q648.84-21.36 646.76-18.92 644.69-16.48 644.69-12.45L644.69-12.45Q644.69-9.77 645.54-7.62 646.4-5.47 648.25-4.14 650.11-2.81 652.72-2.81L652.72-2.81Q655.38-2.81 657.97-4.2L657.97-4.2 657.97-20Q654.62-21.36 652.23-21.36ZM700.38 0L700.38-4.88 705.26-4.88 705.26 0 700.38 0ZM700.74-11.18L700.74-34.69 704.89-34.69 704.89-11.18 700.74-11.18Z" opacity="1" transform="matrix(1,0,0,1,0,0)" fill="#ffffff" class="undefined-text-1" data-fill-palette-color="secondary" id="text-1"></path></svg></g></svg></g></svg></g></svg></g><g transform="matrix(1,0,0,1,154.5388898948267,0)"><svg viewBox="0 0 88.4198202103465 117.6699130312018" height="117.6699130312018" width="88.4198202103465"><g><svg xmlns="http://www.w3.org/2000/svg" xmlns:xlink="http://www.w3.org/1999/xlink" version="1.1" x="0" y="0" viewBox="0.0007156133651733398 0 75.14128112792969 99.99871063232422" enable-background="new 0 0 75.142 99.999" xml:space="preserve" width="88.4198202103465" height="117.6699130312018" class="icon-icon-0" data-fill-palette-color="accent" id="icon-0"><path d="M56.572 55.698c0-1.52 6.527-21.734-6.182-27.847C35.748 20.808 31.701 15.19 31.822 6.188c-0.009 0.365-8.855 14.62-3.094 21.663 8.942 10.902 5.166 19.343 0 18.566-8.68-1.301-7.632-12.617-6.191-15.472-4.536-0.478-9.782 2.343-12.378 6.188-7.808 11.598 9.114 22.696 3.097 30.944-4.579 6.285-12.404-6.09-12.378-6.188-9.29 48.494 58.182 49.726 61.889 9.284 1.104-12.128 12.024-18.725 12.375-18.569C63.515 47.243 56.572 56.086 56.572 55.698zM34.918 89.743C18.695 90.341 20.361 78.184 22.537 74.27c2.763-4.984 9.76-5.969 6.191-12.381 0.046 0.098 7.589 1.231 12.373 6.188C48.439 75.652 47.604 89.264 34.918 89.743z" fill="#ffffff" data-fill-palette-color="accent"></path><path d="M44.197 15.472c-1.894-2.032-3.097-4.472-3.097-6.19 0-3.221 2.631-6.317 6.193-9.282 0.357 2.579-1.543 6.447 0 9.282 1.197 2.098 3.097 4.472 3.097 6.19 0 2.302-0.857 4.4-3.097 6.188C46.954 20.799 46.361 17.976 44.197 15.472z" fill="#ffffff" data-fill-palette-color="accent"></path></svg></g></svg></g><g></g></svg></g><defs></defs></svg><rect width="395.52" height="237.01552061741282" fill="none" stroke="none" visibility="hidden"></rect></g></svg></g></svg>